<svg xmlns="http://www.w3.org/2000/svg" width="560" height="1360" viewBox="0 0 560 1360" role="img"><title>When submissions happen: count and distinct contributors</title><defs><pattern id="mask" width="6" height="6" patternUnits="userSpaceOnUse"><rect width="6" height="6" fill="#f1eee8"/><path d="M0 6L6 0" stroke="#c1bdb4"/></pattern></defs>
<rect width="560" height="1360" fill="#fffefa"/>
<text x="30" y="30" fill="#12655f" text-anchor="start" font-family="Arial, sans-serif" font-size="12" font-weight="700">01 / TIMING</text>
<text x="30" y="67" fill="#192f38" text-anchor="start" font-family="Arial, sans-serif" font-size="25" font-weight="700">When submissions happen</text>
<text x="30" y="94" fill="#52636a" text-anchor="start" font-family="Arial, sans-serif" font-size="13" font-weight="400">Recorded activity in Beijing time (UTC+08:00).</text>
<text x="30" y="114" fill="#52636a" text-anchor="start" font-family="Arial, sans-serif" font-size="13" font-weight="400">Four-hour cells. Small groups are masked; masked does not mean zero.</text>
<text x="30" y="147" fill="#192f38" text-anchor="start" font-family="Arial, sans-serif" font-size="17" font-weight="700">Submission count</text>
<rect x="255" y="135" width="3" height="10" fill="#f3f7f4" stroke="none"/>
<rect x="258" y="135" width="3" height="10" fill="#eef4f1" stroke="none"/>
<rect x="261" y="135" width="3" height="10" fill="#eaf1ee" stroke="none"/>
<rect x="264" y="135" width="3" height="10" fill="#e5eeeb" stroke="none"/>
<rect x="267" y="135" width="3" height="10" fill="#e1ebe8" stroke="none"/>
<rect x="270" y="135" width="3" height="10" fill="#dce8e5" stroke="none"/>
<rect x="273" y="135" width="3" height="10" fill="#d7e5e2" stroke="none"/>
<rect x="276" y="135" width="3" height="10" fill="#d3e2df" stroke="none"/>
<rect x="279" y="135" width="3" height="10" fill="#cedfdc" stroke="none"/>
<rect x="282" y="135" width="3" height="10" fill="#cadcd9" stroke="none"/>
<rect x="285" y="135" width="3" height="10" fill="#c5d9d6" stroke="none"/>
<rect x="288" y="135" width="3" height="10" fill="#c0d6d3" stroke="none"/>
<rect x="291" y="135" width="3" height="10" fill="#bcd3d0" stroke="none"/>
<rect x="294" y="135" width="3" height="10" fill="#b7d0cc" stroke="none"/>
<rect x="297" y="135" width="3" height="10" fill="#b3cdc9" stroke="none"/>
<rect x="300" y="135" width="3" height="10" fill="#aecac6" stroke="none"/>
<rect x="303" y="135" width="3" height="10" fill="#aac7c3" stroke="none"/>
<rect x="306" y="135" width="3" height="10" fill="#a5c4c0" stroke="none"/>
<rect x="309" y="135" width="3" height="10" fill="#a0c1bd" stroke="none"/>
<rect x="312" y="135" width="3" height="10" fill="#9cbeba" stroke="none"/>
<rect x="315" y="135" width="3" height="10" fill="#97bbb7" stroke="none"/>
<rect x="318" y="135" width="3" height="10" fill="#93b8b4" stroke="none"/>
<rect x="321" y="135" width="3" height="10" fill="#8eb5b1" stroke="none"/>
<rect x="324" y="135" width="3" height="10" fill="#89b2ae" stroke="none"/>
<rect x="327" y="135" width="3" height="10" fill="#85afab" stroke="none"/>
<rect x="330" y="135" width="3" height="10" fill="#80ada8" stroke="none"/>
<rect x="333" y="135" width="3" height="10" fill="#7caaa5" stroke="none"/>
<rect x="336" y="135" width="3" height="10" fill="#77a7a2" stroke="none"/>
<rect x="339" y="135" width="3" height="10" fill="#72a49f" stroke="none"/>
<rect x="342" y="135" width="3" height="10" fill="#6ea19c" stroke="none"/>
<rect x="345" y="135" width="3" height="10" fill="#699e99" stroke="none"/>
<rect x="348" y="135" width="3" height="10" fill="#659b96" stroke="none"/>
<rect x="351" y="135" width="3" height="10" fill="#609893" stroke="none"/>
<rect x="354" y="135" width="3" height="10" fill="#5b9590" stroke="none"/>
<rect x="357" y="135" width="3" height="10" fill="#57928d" stroke="none"/>
<rect x="360" y="135" width="3" height="10" fill="#528f8a" stroke="none"/>
<rect x="363" y="135" width="3" height="10" fill="#4e8c87" stroke="none"/>
<rect x="366" y="135" width="3" height="10" fill="#498983" stroke="none"/>
<rect x="369" y="135" width="3" height="10" fill="#458680" stroke="none"/>
<rect x="372" y="135" width="3" height="10" fill="#40837d" stroke="none"/>
<rect x="375" y="135" width="3" height="10" fill="#3b807a" stroke="none"/>
<rect x="378" y="135" width="3" height="10" fill="#377d77" stroke="none"/>
<rect x="381" y="135" width="3" height="10" fill="#327a74" stroke="none"/>
<rect x="384" y="135" width="3" height="10" fill="#2e7771" stroke="none"/>
<rect x="387" y="135" width="3" height="10" fill="#29746e" stroke="none"/>
<rect x="390" y="135" width="3" height="10" fill="#24716b" stroke="none"/>
<rect x="393" y="135" width="3" height="10" fill="#206e68" stroke="none"/>
<rect x="396" y="135" width="3" height="10" fill="#1b6b65" stroke="none"/>
<rect x="399" y="135" width="3" height="10" fill="#176862" stroke="none"/>
<rect x="402" y="135" width="3" height="10" fill="#12655f" stroke="none"/>
<text x="255" y="160" fill="#52636a" text-anchor="start" font-family="Arial, sans-serif" font-size="10" font-weight="400">0</text>
<text x="405" y="160" fill="#52636a" text-anchor="end" font-family="Arial, sans-serif" font-size="10" font-weight="400">153</text>
<text x="137.0" y="175" fill="#52636a" text-anchor="middle" font-family="Arial, sans-serif" font-size="11" font-weight="400">00</text>
<text x="207.0" y="175" fill="#52636a" text-anchor="middle" font-family="Arial, sans-serif" font-size="11" font-weight="400">04</text>
<text x="277.0" y="175" fill="#52636a" text-anchor="middle" font-family="Arial, sans-serif" font-size="11" font-weight="400">08</text>
<text x="347.0" y="175" fill="#52636a" text-anchor="middle" font-family="Arial, sans-serif" font-size="11" font-weight="400">12</text>
<text x="417.0" y="175" fill="#52636a" text-anchor="middle" font-family="Arial, sans-serif" font-size="11" font-weight="400">16</text>
<text x="487.0" y="175" fill="#52636a" text-anchor="middle" font-family="Arial, sans-serif" font-size="11" font-weight="400">20</text>
<text x="92" y="201" fill="#52636a" text-anchor="end" font-family="Arial, sans-serif" font-size="11" font-weight="400">Aug 26</text>
<rect x="102.0" y="186" width="68.0" height="19" fill="#e1e3df" stroke="none"/>
<rect x="172.0" y="186" width="68.0" height="19" fill="#e1e3df" stroke="none"/>
<rect x="242.0" y="186" width="68.0" height="19" fill="#e1e3df" stroke="none"/>
<rect x="312.0" y="186" width="68.0" height="19" fill="#f3f7f4" stroke="none"/>
<rect x="382.0" y="186" width="68.0" height="19" fill="#f3f7f4" stroke="none"/>
<rect x="452.0" y="186" width="68.0" height="19" fill="#f3f7f4" stroke="none"/>
<text x="92" y="222" fill="#52636a" text-anchor="end" font-family="Arial, sans-serif" font-size="11" font-weight="400">Aug 27</text>
<rect x="102.0" y="207" width="68.0" height="19" fill="#f3f7f4" stroke="none"/>
<rect x="172.0" y="207" width="68.0" height="19" fill="#f3f7f4" stroke="none"/>
<rect x="242.0" y="207" width="68.0" height="19" fill="#f3f7f4" stroke="none"/>
<rect x="312.0" y="207" width="68.0" height="19" fill="url(#mask)" stroke="none"/>
<rect x="382.0" y="207" width="68.0" height="19" fill="url(#mask)" stroke="none"/>
<rect x="452.0" y="207" width="68.0" height="19" fill="url(#mask)" stroke="none"/>
<text x="92" y="243" fill="#52636a" text-anchor="end" font-family="Arial, sans-serif" font-size="11" font-weight="400">Aug 28</text>
<rect x="102.0" y="228" width="68.0" height="19" fill="#f3f7f4" stroke="none"/>
<rect x="172.0" y="228" width="68.0" height="19" fill="#f3f7f4" stroke="none"/>
<rect x="242.0" y="228" width="68.0" height="19" fill="url(#mask)" stroke="none"/>
<rect x="312.0" y="228" width="68.0" height="19" fill="#9fc1bc" stroke="none"/>
<text x="347.0" y="242" fill="#192f38" text-anchor="middle" font-family="Arial, sans-serif" font-size="11" font-weight="400">57</text>
<rect x="382.0" y="228" width="68.0" height="19" fill="#cedfdc" stroke="none"/>
<text x="417.0" y="242" fill="#192f38" text-anchor="middle" font-family="Arial, sans-serif" font-size="11" font-weight="400">25</text>
<rect x="452.0" y="228" width="68.0" height="19" fill="url(#mask)" stroke="none"/>
<text x="92" y="264" fill="#52636a" text-anchor="end" font-family="Arial, sans-serif" font-size="11" font-weight="400">Aug 29</text>
<rect x="102.0" y="249" width="68.0" height="19" fill="url(#mask)" stroke="none"/>
<rect x="172.0" y="249" width="68.0" height="19" fill="#f3f7f4" stroke="none"/>
<rect x="242.0" y="249" width="68.0" height="19" fill="url(#mask)" stroke="none"/>
<rect x="312.0" y="249" width="68.0" height="19" fill="#12655f" stroke="none"/>
<text x="347.0" y="263" fill="white" text-anchor="middle" font-family="Arial, sans-serif" font-size="11" font-weight="400">153</text>
<rect x="382.0" y="249" width="68.0" height="19" fill="#9fc1bc" stroke="none"/>
<text x="417.0" y="263" fill="#192f38" text-anchor="middle" font-family="Arial, sans-serif" font-size="11" font-weight="400">57</text>
<rect x="452.0" y="249" width="68.0" height="19" fill="url(#mask)" stroke="none"/>
<text x="92" y="285" fill="#52636a" text-anchor="end" font-family="Arial, sans-serif" font-size="11" font-weight="400">Aug 30</text>
<rect x="102.0" y="270" width="68.0" height="19" fill="url(#mask)" stroke="none"/>
<rect x="172.0" y="270" width="68.0" height="19" fill="#f3f7f4" stroke="none"/>
<rect x="242.0" y="270" width="68.0" height="19" fill="#f3f7f4" stroke="none"/>
<rect x="312.0" y="270" width="68.0" height="19" fill="url(#mask)" stroke="none"/>
<rect x="382.0" y="270" width="68.0" height="19" fill="#afcbc7" stroke="none"/>
<text x="417.0" y="284" fill="#192f38" text-anchor="middle" font-family="Arial, sans-serif" font-size="11" font-weight="400">46</text>
<rect x="452.0" y="270" width="68.0" height="19" fill="#dae7e3" stroke="none"/>
<text x="487.0" y="284" fill="#192f38" text-anchor="middle" font-family="Arial, sans-serif" font-size="11" font-weight="400">17</text>
<text x="92" y="306" fill="#52636a" text-anchor="end" font-family="Arial, sans-serif" font-size="11" font-weight="400">Aug 31</text>
<rect x="102.0" y="291" width="68.0" height="19" fill="url(#mask)" stroke="none"/>
<rect x="172.0" y="291" width="68.0" height="19" fill="url(#mask)" stroke="none"/>
<rect x="242.0" y="291" width="68.0" height="19" fill="url(#mask)" stroke="none"/>
<rect x="312.0" y="291" width="68.0" height="19" fill="url(#mask)" stroke="none"/>
<rect x="382.0" y="291" width="68.0" height="19" fill="#f3f7f4" stroke="none"/>
<rect x="452.0" y="291" width="68.0" height="19" fill="#c7dad7" stroke="none"/>
<text x="487.0" y="305" fill="#192f38" text-anchor="middle" font-family="Arial, sans-serif" font-size="11" font-weight="400">30</text>
<text x="92" y="327" fill="#52636a" text-anchor="end" font-family="Arial, sans-serif" font-size="11" font-weight="400">Sep 01</text>
<rect x="102.0" y="312" width="68.0" height="19" fill="url(#mask)" stroke="none"/>
<rect x="172.0" y="312" width="68.0" height="19" fill="#f3f7f4" stroke="none"/>
<rect x="242.0" y="312" width="68.0" height="19" fill="url(#mask)" stroke="none"/>
<rect x="312.0" y="312" width="68.0" height="19" fill="url(#mask)" stroke="none"/>
<rect x="382.0" y="312" width="68.0" height="19" fill="#c5d9d6" stroke="none"/>
<text x="417.0" y="326" fill="#192f38" text-anchor="middle" font-family="Arial, sans-serif" font-size="11" font-weight="400">31</text>
<rect x="452.0" y="312" width="68.0" height="19" fill="#afcbc7" stroke="none"/>
<text x="487.0" y="326" fill="#192f38" text-anchor="middle" font-family="Arial, sans-serif" font-size="11" font-weight="400">46</text>
<text x="92" y="348" fill="#52636a" text-anchor="end" font-family="Arial, sans-serif" font-size="11" font-weight="400">Sep 02</text>
<rect x="102.0" y="333" width="68.0" height="19" fill="#e1e3df" stroke="none"/>
<rect x="172.0" y="333" width="68.0" height="19" fill="#e1e3df" stroke="none"/>
<rect x="242.0" y="333" width="68.0" height="19" fill="#e1e3df" stroke="none"/>
<rect x="312.0" y="333" width="68.0" height="19" fill="#e1e3df" stroke="none"/>
<rect x="382.0" y="333" width="68.0" height="19" fill="#e1e3df" stroke="none"/>
<rect x="452.0" y="333" width="68.0" height="19" fill="#e1e3df" stroke="none"/>
<text x="92" y="369" fill="#52636a" text-anchor="end" font-family="Arial, sans-serif" font-size="11" font-weight="400">Sep 03</text>
<rect x="102.0" y="354" width="68.0" height="19" fill="#e1e3df" stroke="none"/>
<rect x="172.0" y="354" width="68.0" height="19" fill="#e1e3df" stroke="none"/>
<rect x="242.0" y="354" width="68.0" height="19" fill="#e1e3df" stroke="none"/>
<rect x="312.0" y="354" width="68.0" height="19" fill="#dae7e3" stroke="none"/>
<text x="347.0" y="368" fill="#192f38" text-anchor="middle" font-family="Arial, sans-serif" font-size="11" font-weight="400">17</text>
<rect x="382.0" y="354" width="68.0" height="19" fill="#cbddda" stroke="none"/>
<text x="417.0" y="368" fill="#192f38" text-anchor="middle" font-family="Arial, sans-serif" font-size="11" font-weight="400">27</text>
<rect x="452.0" y="354" width="68.0" height="19" fill="url(#mask)" stroke="none"/>
<text x="92" y="390" fill="#52636a" text-anchor="end" font-family="Arial, sans-serif" font-size="11" font-weight="400">Sep 04</text>
<rect x="102.0" y="375" width="68.0" height="19" fill="#f3f7f4" stroke="none"/>
<rect x="172.0" y="375" width="68.0" height="19" fill="url(#mask)" stroke="none"/>
<rect x="242.0" y="375" width="68.0" height="19" fill="url(#mask)" stroke="none"/>
<rect x="312.0" y="375" width="68.0" height="19" fill="#bdd4d0" stroke="none"/>
<text x="347.0" y="389" fill="#192f38" text-anchor="middle" font-family="Arial, sans-serif" font-size="11" font-weight="400">37</text>
<rect x="382.0" y="375" width="68.0" height="19" fill="#98bcb8" stroke="none"/>
<text x="417.0" y="389" fill="#192f38" text-anchor="middle" font-family="Arial, sans-serif" font-size="11" font-weight="400">62</text>
<rect x="452.0" y="375" width="68.0" height="19" fill="#c4d8d5" stroke="none"/>
<text x="487.0" y="389" fill="#192f38" text-anchor="middle" font-family="Arial, sans-serif" font-size="11" font-weight="400">32</text>
<text x="92" y="411" fill="#52636a" text-anchor="end" font-family="Arial, sans-serif" font-size="11" font-weight="400">Sep 05</text>
<rect x="102.0" y="396" width="68.0" height="19" fill="url(#mask)" stroke="none"/>
<rect x="172.0" y="396" width="68.0" height="19" fill="#f3f7f4" stroke="none"/>
<rect x="242.0" y="396" width="68.0" height="19" fill="url(#mask)" stroke="none"/>
<rect x="312.0" y="396" width="68.0" height="19" fill="url(#mask)" stroke="none"/>
<rect x="382.0" y="396" width="68.0" height="19" fill="#86b0ac" stroke="none"/>
<text x="417.0" y="410" fill="#192f38" text-anchor="middle" font-family="Arial, sans-serif" font-size="11" font-weight="400">74</text>
<rect x="452.0" y="396" width="68.0" height="19" fill="url(#mask)" stroke="none"/>
<text x="92" y="432" fill="#52636a" text-anchor="end" font-family="Arial, sans-serif" font-size="11" font-weight="400">Sep 06</text>
<rect x="102.0" y="417" width="68.0" height="19" fill="url(#mask)" stroke="none"/>
<rect x="172.0" y="417" width="68.0" height="19" fill="#f3f7f4" stroke="none"/>
<rect x="242.0" y="417" width="68.0" height="19" fill="url(#mask)" stroke="none"/>
<rect x="312.0" y="417" width="68.0" height="19" fill="url(#mask)" stroke="none"/>
<rect x="382.0" y="417" width="68.0" height="19" fill="url(#mask)" stroke="none"/>
<rect x="452.0" y="417" width="68.0" height="19" fill="url(#mask)" stroke="none"/>
<text x="92" y="453" fill="#52636a" text-anchor="end" font-family="Arial, sans-serif" font-size="11" font-weight="400">Sep 07</text>
<rect x="102.0" y="438" width="68.0" height="19" fill="url(#mask)" stroke="none"/>
<rect x="172.0" y="438" width="68.0" height="19" fill="#f3f7f4" stroke="none"/>
<rect x="242.0" y="438" width="68.0" height="19" fill="url(#mask)" stroke="none"/>
<rect x="312.0" y="438" width="68.0" height="19" fill="#b4ceca" stroke="none"/>
<text x="347.0" y="452" fill="#192f38" text-anchor="middle" font-family="Arial, sans-serif" font-size="11" font-weight="400">43</text>
<rect x="382.0" y="438" width="68.0" height="19" fill="url(#mask)" stroke="none"/>
<rect x="452.0" y="438" width="68.0" height="19" fill="url(#mask)" stroke="none"/>
<text x="92" y="474" fill="#52636a" text-anchor="end" font-family="Arial, sans-serif" font-size="11" font-weight="400">Sep 08</text>
<rect x="102.0" y="459" width="68.0" height="19" fill="#f3f7f4" stroke="none"/>
<rect x="172.0" y="459" width="68.0" height="19" fill="url(#mask)" stroke="none"/>
<rect x="242.0" y="459" width="68.0" height="19" fill="url(#mask)" stroke="none"/>
<rect x="312.0" y="459" width="68.0" height="19" fill="url(#mask)" stroke="none"/>
<rect x="382.0" y="459" width="68.0" height="19" fill="#b8d1cd" stroke="none"/>
<text x="417.0" y="473" fill="#192f38" text-anchor="middle" font-family="Arial, sans-serif" font-size="11" font-weight="400">40</text>
<rect x="452.0" y="459" width="68.0" height="19" fill="#9cbfbb" stroke="none"/>
<text x="487.0" y="473" fill="#192f38" text-anchor="middle" font-family="Arial, sans-serif" font-size="11" font-weight="400">59</text>
<text x="92" y="495" fill="#52636a" text-anchor="end" font-family="Arial, sans-serif" font-size="11" font-weight="400">Sep 09</text>
<rect x="102.0" y="480" width="68.0" height="19" fill="#e1e3df" stroke="none"/>
<rect x="172.0" y="480" width="68.0" height="19" fill="#e1e3df" stroke="none"/>
<rect x="242.0" y="480" width="68.0" height="19" fill="#e1e3df" stroke="none"/>
<rect x="312.0" y="480" width="68.0" height="19" fill="#e1e3df" stroke="none"/>
<rect x="382.0" y="480" width="68.0" height="19" fill="#e1e3df" stroke="none"/>
<rect x="452.0" y="480" width="68.0" height="19" fill="#e1e3df" stroke="none"/>
<text x="92" y="516" fill="#52636a" text-anchor="end" font-family="Arial, sans-serif" font-size="11" font-weight="400">Sep 10</text>
<rect x="102.0" y="501" width="68.0" height="19" fill="#e1e3df" stroke="none"/>
<rect x="172.0" y="501" width="68.0" height="19" fill="#e1e3df" stroke="none"/>
<rect x="242.0" y="501" width="68.0" height="19" fill="#e1e3df" stroke="none"/>
<rect x="312.0" y="501" width="68.0" height="19" fill="#e1e3df" stroke="none"/>
<rect x="382.0" y="501" width="68.0" height="19" fill="#e1e3df" stroke="none"/>
<rect x="452.0" y="501" width="68.0" height="19" fill="#e1e3df" stroke="none"/>
<text x="92" y="537" fill="#52636a" text-anchor="end" font-family="Arial, sans-serif" font-size="11" font-weight="400">Sep 11</text>
<rect x="102.0" y="522" width="68.0" height="19" fill="#e1e3df" stroke="none"/>
<rect x="172.0" y="522" width="68.0" height="19" fill="#e1e3df" stroke="none"/>
<rect x="242.0" y="522" width="68.0" height="19" fill="url(#mask)" stroke="none"/>
<rect x="312.0" y="522" width="68.0" height="19" fill="#75a5a0" stroke="none"/>
<text x="347.0" y="536" fill="white" text-anchor="middle" font-family="Arial, sans-serif" font-size="11" font-weight="400">86</text>
<rect x="382.0" y="522" width="68.0" height="19" fill="#7aa9a4" stroke="none"/>
<text x="417.0" y="536" fill="#192f38" text-anchor="middle" font-family="Arial, sans-serif" font-size="11" font-weight="400">82</text>
<rect x="452.0" y="522" width="68.0" height="19" fill="#c0d6d2" stroke="none"/>
<text x="487.0" y="536" fill="#192f38" text-anchor="middle" font-family="Arial, sans-serif" font-size="11" font-weight="400">35</text>
<text x="92" y="558" fill="#52636a" text-anchor="end" font-family="Arial, sans-serif" font-size="11" font-weight="400">Sep 12</text>
<rect x="102.0" y="543" width="68.0" height="19" fill="url(#mask)" stroke="none"/>
<rect x="172.0" y="543" width="68.0" height="19" fill="#f3f7f4" stroke="none"/>
<rect x="242.0" y="543" width="68.0" height="19" fill="url(#mask)" stroke="none"/>
<rect x="312.0" y="543" width="68.0" height="19" fill="#b7d0cc" stroke="none"/>
<text x="347.0" y="557" fill="#192f38" text-anchor="middle" font-family="Arial, sans-serif" font-size="11" font-weight="400">41</text>
<rect x="382.0" y="543" width="68.0" height="19" fill="#bbd3cf" stroke="none"/>
<text x="417.0" y="557" fill="#192f38" text-anchor="middle" font-family="Arial, sans-serif" font-size="11" font-weight="400">38</text>
<rect x="452.0" y="543" width="68.0" height="19" fill="#bed5d1" stroke="none"/>
<text x="487.0" y="557" fill="#192f38" text-anchor="middle" font-family="Arial, sans-serif" font-size="11" font-weight="400">36</text>
<text x="92" y="579" fill="#52636a" text-anchor="end" font-family="Arial, sans-serif" font-size="11" font-weight="400">Sep 13</text>
<rect x="102.0" y="564" width="68.0" height="19" fill="url(#mask)" stroke="none"/>
<rect x="172.0" y="564" width="68.0" height="19" fill="url(#mask)" stroke="none"/>
<rect x="242.0" y="564" width="68.0" height="19" fill="url(#mask)" stroke="none"/>
<rect x="312.0" y="564" width="68.0" height="19" fill="url(#mask)" stroke="none"/>
<rect x="382.0" y="564" width="68.0" height="19" fill="#98bcb8" stroke="none"/>
<text x="417.0" y="578" fill="#192f38" text-anchor="middle" font-family="Arial, sans-serif" font-size="11" font-weight="400">62</text>
<rect x="452.0" y="564" width="68.0" height="19" fill="url(#mask)" stroke="none"/>
<text x="92" y="600" fill="#52636a" text-anchor="end" font-family="Arial, sans-serif" font-size="11" font-weight="400">Sep 14</text>
<rect x="102.0" y="585" width="68.0" height="19" fill="url(#mask)" stroke="none"/>
<rect x="172.0" y="585" width="68.0" height="19" fill="url(#mask)" stroke="none"/>
<rect x="242.0" y="585" width="68.0" height="19" fill="url(#mask)" stroke="none"/>
<rect x="312.0" y="585" width="68.0" height="19" fill="#c5d9d6" stroke="none"/>
<text x="347.0" y="599" fill="#192f38" text-anchor="middle" font-family="Arial, sans-serif" font-size="11" font-weight="400">31</text>
<rect x="382.0" y="585" width="68.0" height="19" fill="url(#mask)" stroke="none"/>
<rect x="452.0" y="585" width="68.0" height="19" fill="#98bcb8" stroke="none"/>
<text x="487.0" y="599" fill="#192f38" text-anchor="middle" font-family="Arial, sans-serif" font-size="11" font-weight="400">62</text>
<text x="92" y="621" fill="#52636a" text-anchor="end" font-family="Arial, sans-serif" font-size="11" font-weight="400">Sep 15</text>
<rect x="102.0" y="606" width="68.0" height="19" fill="url(#mask)" stroke="none"/>
<rect x="172.0" y="606" width="68.0" height="19" fill="#f3f7f4" stroke="none"/>
<rect x="242.0" y="606" width="68.0" height="19" fill="url(#mask)" stroke="none"/>
<rect x="312.0" y="606" width="68.0" height="19" fill="url(#mask)" stroke="none"/>
<rect x="382.0" y="606" width="68.0" height="19" fill="#b2cdc9" stroke="none"/>
<text x="417.0" y="620" fill="#192f38" text-anchor="middle" font-family="Arial, sans-serif" font-size="11" font-weight="400">44</text>
<rect x="452.0" y="606" width="68.0" height="19" fill="#a4c3bf" stroke="none"/>
<text x="487.0" y="620" fill="#192f38" text-anchor="middle" font-family="Arial, sans-serif" font-size="11" font-weight="400">54</text>
<circle cx="364.5" cy="196.5" r="4" fill="#fffefa" stroke="#a56728" stroke-width="2"/>
<path d="M521.7083333333334 318.5l4 4l-4 4l-4 -4Z" fill="#a56728"/>
<circle cx="312.0" cy="364.5" r="4" fill="#fffefa" stroke="#a56728" stroke-width="2"/>
<path d="M521.7083333333334 465.5l4 4l-4 4l-4 -4Z" fill="#a56728"/>
<circle cx="294.5" cy="532.5" r="4" fill="#fffefa" stroke="#a56728" stroke-width="2"/>
<path d="M521.7083333333334 612.5l4 4l-4 4l-4 -4Z" fill="#a56728"/>
<text x="102" y="652" fill="#52636a" text-anchor="start" font-family="Arial, sans-serif" font-size="12" font-weight="400">Hour of day · cell start</text>
<text x="30" y="697" fill="#192f38" text-anchor="start" font-family="Arial, sans-serif" font-size="17" font-weight="700">Distinct contributors</text>
<rect x="255" y="685" width="3" height="10" fill="#f3f7f4" stroke="none"/>
<rect x="258" y="685" width="3" height="10" fill="#eef4f1" stroke="none"/>
<rect x="261" y="685" width="3" height="10" fill="#eaf1ee" stroke="none"/>
<rect x="264" y="685" width="3" height="10" fill="#e5eeeb" stroke="none"/>
<rect x="267" y="685" width="3" height="10" fill="#e1ebe8" stroke="none"/>
<rect x="270" y="685" width="3" height="10" fill="#dce8e5" stroke="none"/>
<rect x="273" y="685" width="3" height="10" fill="#d7e5e2" stroke="none"/>
<rect x="276" y="685" width="3" height="10" fill="#d3e2df" stroke="none"/>
<rect x="279" y="685" width="3" height="10" fill="#cedfdc" stroke="none"/>
<rect x="282" y="685" width="3" height="10" fill="#cadcd9" stroke="none"/>
<rect x="285" y="685" width="3" height="10" fill="#c5d9d6" stroke="none"/>
<rect x="288" y="685" width="3" height="10" fill="#c0d6d3" stroke="none"/>
<rect x="291" y="685" width="3" height="10" fill="#bcd3d0" stroke="none"/>
<rect x="294" y="685" width="3" height="10" fill="#b7d0cc" stroke="none"/>
<rect x="297" y="685" width="3" height="10" fill="#b3cdc9" stroke="none"/>
<rect x="300" y="685" width="3" height="10" fill="#aecac6" stroke="none"/>
<rect x="303" y="685" width="3" height="10" fill="#aac7c3" stroke="none"/>
<rect x="306" y="685" width="3" height="10" fill="#a5c4c0" stroke="none"/>
<rect x="309" y="685" width="3" height="10" fill="#a0c1bd" stroke="none"/>
<rect x="312" y="685" width="3" height="10" fill="#9cbeba" stroke="none"/>
<rect x="315" y="685" width="3" height="10" fill="#97bbb7" stroke="none"/>
<rect x="318" y="685" width="3" height="10" fill="#93b8b4" stroke="none"/>
<rect x="321" y="685" width="3" height="10" fill="#8eb5b1" stroke="none"/>
<rect x="324" y="685" width="3" height="10" fill="#89b2ae" stroke="none"/>
<rect x="327" y="685" width="3" height="10" fill="#85afab" stroke="none"/>
<rect x="330" y="685" width="3" height="10" fill="#80ada8" stroke="none"/>
<rect x="333" y="685" width="3" height="10" fill="#7caaa5" stroke="none"/>
<rect x="336" y="685" width="3" height="10" fill="#77a7a2" stroke="none"/>
<rect x="339" y="685" width="3" height="10" fill="#72a49f" stroke="none"/>
<rect x="342" y="685" width="3" height="10" fill="#6ea19c" stroke="none"/>
<rect x="345" y="685" width="3" height="10" fill="#699e99" stroke="none"/>
<rect x="348" y="685" width="3" height="10" fill="#659b96" stroke="none"/>
<rect x="351" y="685" width="3" height="10" fill="#609893" stroke="none"/>
<rect x="354" y="685" width="3" height="10" fill="#5b9590" stroke="none"/>
<rect x="357" y="685" width="3" height="10" fill="#57928d" stroke="none"/>
<rect x="360" y="685" width="3" height="10" fill="#528f8a" stroke="none"/>
<rect x="363" y="685" width="3" height="10" fill="#4e8c87" stroke="none"/>
<rect x="366" y="685" width="3" height="10" fill="#498983" stroke="none"/>
<rect x="369" y="685" width="3" height="10" fill="#458680" stroke="none"/>
<rect x="372" y="685" width="3" height="10" fill="#40837d" stroke="none"/>
<rect x="375" y="685" width="3" height="10" fill="#3b807a" stroke="none"/>
<rect x="378" y="685" width="3" height="10" fill="#377d77" stroke="none"/>
<rect x="381" y="685" width="3" height="10" fill="#327a74" stroke="none"/>
<rect x="384" y="685" width="3" height="10" fill="#2e7771" stroke="none"/>
<rect x="387" y="685" width="3" height="10" fill="#29746e" stroke="none"/>
<rect x="390" y="685" width="3" height="10" fill="#24716b" stroke="none"/>
<rect x="393" y="685" width="3" height="10" fill="#206e68" stroke="none"/>
<rect x="396" y="685" width="3" height="10" fill="#1b6b65" stroke="none"/>
<rect x="399" y="685" width="3" height="10" fill="#176862" stroke="none"/>
<rect x="402" y="685" width="3" height="10" fill="#12655f" stroke="none"/>
<text x="255" y="710" fill="#52636a" text-anchor="start" font-family="Arial, sans-serif" font-size="10" font-weight="400">0</text>
<text x="405" y="710" fill="#52636a" text-anchor="end" font-family="Arial, sans-serif" font-size="10" font-weight="400">12</text>
<text x="137.0" y="725" fill="#52636a" text-anchor="middle" font-family="Arial, sans-serif" font-size="11" font-weight="400">00</text>
<text x="207.0" y="725" fill="#52636a" text-anchor="middle" font-family="Arial, sans-serif" font-size="11" font-weight="400">04</text>
<text x="277.0" y="725" fill="#52636a" text-anchor="middle" font-family="Arial, sans-serif" font-size="11" font-weight="400">08</text>
<text x="347.0" y="725" fill="#52636a" text-anchor="middle" font-family="Arial, sans-serif" font-size="11" font-weight="400">12</text>
<text x="417.0" y="725" fill="#52636a" text-anchor="middle" font-family="Arial, sans-serif" font-size="11" font-weight="400">16</text>
<text x="487.0" y="725" fill="#52636a" text-anchor="middle" font-family="Arial, sans-serif" font-size="11" font-weight="400">20</text>
<text x="92" y="751" fill="#52636a" text-anchor="end" font-family="Arial, sans-serif" font-size="11" font-weight="400">Aug 26</text>
<rect x="102.0" y="736" width="68.0" height="19" fill="#e1e3df" stroke="none"/>
<rect x="172.0" y="736" width="68.0" height="19" fill="#e1e3df" stroke="none"/>
<rect x="242.0" y="736" width="68.0" height="19" fill="#e1e3df" stroke="none"/>
<rect x="312.0" y="736" width="68.0" height="19" fill="#f3f7f4" stroke="none"/>
<rect x="382.0" y="736" width="68.0" height="19" fill="#f3f7f4" stroke="none"/>
<rect x="452.0" y="736" width="68.0" height="19" fill="#f3f7f4" stroke="none"/>
<text x="92" y="772" fill="#52636a" text-anchor="end" font-family="Arial, sans-serif" font-size="11" font-weight="400">Aug 27</text>
<rect x="102.0" y="757" width="68.0" height="19" fill="#f3f7f4" stroke="none"/>
<rect x="172.0" y="757" width="68.0" height="19" fill="#f3f7f4" stroke="none"/>
<rect x="242.0" y="757" width="68.0" height="19" fill="#f3f7f4" stroke="none"/>
<rect x="312.0" y="757" width="68.0" height="19" fill="url(#mask)" stroke="none"/>
<rect x="382.0" y="757" width="68.0" height="19" fill="url(#mask)" stroke="none"/>
<rect x="452.0" y="757" width="68.0" height="19" fill="url(#mask)" stroke="none"/>
<text x="92" y="793" fill="#52636a" text-anchor="end" font-family="Arial, sans-serif" font-size="11" font-weight="400">Aug 28</text>
<rect x="102.0" y="778" width="68.0" height="19" fill="#f3f7f4" stroke="none"/>
<rect x="172.0" y="778" width="68.0" height="19" fill="#f3f7f4" stroke="none"/>
<rect x="242.0" y="778" width="68.0" height="19" fill="url(#mask)" stroke="none"/>
<rect x="312.0" y="778" width="68.0" height="19" fill="#4a8a84" stroke="none"/>
<text x="347.0" y="792" fill="white" text-anchor="middle" font-family="Arial, sans-serif" font-size="11" font-weight="400">9</text>
<rect x="382.0" y="778" width="68.0" height="19" fill="#82aeaa" stroke="none"/>
<text x="417.0" y="792" fill="#192f38" text-anchor="middle" font-family="Arial, sans-serif" font-size="11" font-weight="400">6</text>
<rect x="452.0" y="778" width="68.0" height="19" fill="url(#mask)" stroke="none"/>
<text x="92" y="814" fill="#52636a" text-anchor="end" font-family="Arial, sans-serif" font-size="11" font-weight="400">Aug 29</text>
<rect x="102.0" y="799" width="68.0" height="19" fill="url(#mask)" stroke="none"/>
<rect x="172.0" y="799" width="68.0" height="19" fill="#f3f7f4" stroke="none"/>
<rect x="242.0" y="799" width="68.0" height="19" fill="url(#mask)" stroke="none"/>
<rect x="312.0" y="799" width="68.0" height="19" fill="#12655f" stroke="none"/>
<text x="347.0" y="813" fill="white" text-anchor="middle" font-family="Arial, sans-serif" font-size="11" font-weight="400">12</text>
<rect x="382.0" y="799" width="68.0" height="19" fill="#5d9691" stroke="none"/>
<text x="417.0" y="813" fill="white" text-anchor="middle" font-family="Arial, sans-serif" font-size="11" font-weight="400">8</text>
<rect x="452.0" y="799" width="68.0" height="19" fill="url(#mask)" stroke="none"/>
<text x="92" y="835" fill="#52636a" text-anchor="end" font-family="Arial, sans-serif" font-size="11" font-weight="400">Aug 30</text>
<rect x="102.0" y="820" width="68.0" height="19" fill="url(#mask)" stroke="none"/>
<rect x="172.0" y="820" width="68.0" height="19" fill="#f3f7f4" stroke="none"/>
<rect x="242.0" y="820" width="68.0" height="19" fill="#f3f7f4" stroke="none"/>
<rect x="312.0" y="820" width="68.0" height="19" fill="url(#mask)" stroke="none"/>
<rect x="382.0" y="820" width="68.0" height="19" fill="#70a29d" stroke="none"/>
<text x="417.0" y="834" fill="white" text-anchor="middle" font-family="Arial, sans-serif" font-size="11" font-weight="400">7</text>
<rect x="452.0" y="820" width="68.0" height="19" fill="#82aeaa" stroke="none"/>
<text x="487.0" y="834" fill="#192f38" text-anchor="middle" font-family="Arial, sans-serif" font-size="11" font-weight="400">6</text>
<text x="92" y="856" fill="#52636a" text-anchor="end" font-family="Arial, sans-serif" font-size="11" font-weight="400">Aug 31</text>
<rect x="102.0" y="841" width="68.0" height="19" fill="url(#mask)" stroke="none"/>
<rect x="172.0" y="841" width="68.0" height="19" fill="url(#mask)" stroke="none"/>
<rect x="242.0" y="841" width="68.0" height="19" fill="url(#mask)" stroke="none"/>
<rect x="312.0" y="841" width="68.0" height="19" fill="url(#mask)" stroke="none"/>
<rect x="382.0" y="841" width="68.0" height="19" fill="#f3f7f4" stroke="none"/>
<rect x="452.0" y="841" width="68.0" height="19" fill="#95bab6" stroke="none"/>
<text x="487.0" y="855" fill="#192f38" text-anchor="middle" font-family="Arial, sans-serif" font-size="11" font-weight="400">5</text>
<text x="92" y="877" fill="#52636a" text-anchor="end" font-family="Arial, sans-serif" font-size="11" font-weight="400">Sep 01</text>
<rect x="102.0" y="862" width="68.0" height="19" fill="url(#mask)" stroke="none"/>
<rect x="172.0" y="862" width="68.0" height="19" fill="#f3f7f4" stroke="none"/>
<rect x="242.0" y="862" width="68.0" height="19" fill="url(#mask)" stroke="none"/>
<rect x="312.0" y="862" width="68.0" height="19" fill="url(#mask)" stroke="none"/>
<rect x="382.0" y="862" width="68.0" height="19" fill="#70a29d" stroke="none"/>
<text x="417.0" y="876" fill="white" text-anchor="middle" font-family="Arial, sans-serif" font-size="11" font-weight="400">7</text>
<rect x="452.0" y="862" width="68.0" height="19" fill="#70a29d" stroke="none"/>
<text x="487.0" y="876" fill="white" text-anchor="middle" font-family="Arial, sans-serif" font-size="11" font-weight="400">7</text>
<text x="92" y="898" fill="#52636a" text-anchor="end" font-family="Arial, sans-serif" font-size="11" font-weight="400">Sep 02</text>
<rect x="102.0" y="883" width="68.0" height="19" fill="#e1e3df" stroke="none"/>
<rect x="172.0" y="883" width="68.0" height="19" fill="#e1e3df" stroke="none"/>
<rect x="242.0" y="883" width="68.0" height="19" fill="#e1e3df" stroke="none"/>
<rect x="312.0" y="883" width="68.0" height="19" fill="#e1e3df" stroke="none"/>
<rect x="382.0" y="883" width="68.0" height="19" fill="#e1e3df" stroke="none"/>
<rect x="452.0" y="883" width="68.0" height="19" fill="#e1e3df" stroke="none"/>
<text x="92" y="919" fill="#52636a" text-anchor="end" font-family="Arial, sans-serif" font-size="11" font-weight="400">Sep 03</text>
<rect x="102.0" y="904" width="68.0" height="19" fill="#e1e3df" stroke="none"/>
<rect x="172.0" y="904" width="68.0" height="19" fill="#e1e3df" stroke="none"/>
<rect x="242.0" y="904" width="68.0" height="19" fill="#e1e3df" stroke="none"/>
<rect x="312.0" y="904" width="68.0" height="19" fill="#95bab6" stroke="none"/>
<text x="347.0" y="918" fill="#192f38" text-anchor="middle" font-family="Arial, sans-serif" font-size="11" font-weight="400">5</text>
<rect x="382.0" y="904" width="68.0" height="19" fill="#82aeaa" stroke="none"/>
<text x="417.0" y="918" fill="#192f38" text-anchor="middle" font-family="Arial, sans-serif" font-size="11" font-weight="400">6</text>
<rect x="452.0" y="904" width="68.0" height="19" fill="url(#mask)" stroke="none"/>
<text x="92" y="940" fill="#52636a" text-anchor="end" font-family="Arial, sans-serif" font-size="11" font-weight="400">Sep 04</text>
<rect x="102.0" y="925" width="68.0" height="19" fill="#f3f7f4" stroke="none"/>
<rect x="172.0" y="925" width="68.0" height="19" fill="url(#mask)" stroke="none"/>
<rect x="242.0" y="925" width="68.0" height="19" fill="url(#mask)" stroke="none"/>
<rect x="312.0" y="925" width="68.0" height="19" fill="#5d9691" stroke="none"/>
<text x="347.0" y="939" fill="white" text-anchor="middle" font-family="Arial, sans-serif" font-size="11" font-weight="400">8</text>
<rect x="382.0" y="925" width="68.0" height="19" fill="#25716b" stroke="none"/>
<text x="417.0" y="939" fill="white" text-anchor="middle" font-family="Arial, sans-serif" font-size="11" font-weight="400">11</text>
<rect x="452.0" y="925" width="68.0" height="19" fill="#82aeaa" stroke="none"/>
<text x="487.0" y="939" fill="#192f38" text-anchor="middle" font-family="Arial, sans-serif" font-size="11" font-weight="400">6</text>
<text x="92" y="961" fill="#52636a" text-anchor="end" font-family="Arial, sans-serif" font-size="11" font-weight="400">Sep 05</text>
<rect x="102.0" y="946" width="68.0" height="19" fill="url(#mask)" stroke="none"/>
<rect x="172.0" y="946" width="68.0" height="19" fill="#f3f7f4" stroke="none"/>
<rect x="242.0" y="946" width="68.0" height="19" fill="url(#mask)" stroke="none"/>
<rect x="312.0" y="946" width="68.0" height="19" fill="url(#mask)" stroke="none"/>
<rect x="382.0" y="946" width="68.0" height="19" fill="#82aeaa" stroke="none"/>
<text x="417.0" y="960" fill="#192f38" text-anchor="middle" font-family="Arial, sans-serif" font-size="11" font-weight="400">6</text>
<rect x="452.0" y="946" width="68.0" height="19" fill="url(#mask)" stroke="none"/>
<text x="92" y="982" fill="#52636a" text-anchor="end" font-family="Arial, sans-serif" font-size="11" font-weight="400">Sep 06</text>
<rect x="102.0" y="967" width="68.0" height="19" fill="url(#mask)" stroke="none"/>
<rect x="172.0" y="967" width="68.0" height="19" fill="#f3f7f4" stroke="none"/>
<rect x="242.0" y="967" width="68.0" height="19" fill="url(#mask)" stroke="none"/>
<rect x="312.0" y="967" width="68.0" height="19" fill="url(#mask)" stroke="none"/>
<rect x="382.0" y="967" width="68.0" height="19" fill="url(#mask)" stroke="none"/>
<rect x="452.0" y="967" width="68.0" height="19" fill="url(#mask)" stroke="none"/>
<text x="92" y="1003" fill="#52636a" text-anchor="end" font-family="Arial, sans-serif" font-size="11" font-weight="400">Sep 07</text>
<rect x="102.0" y="988" width="68.0" height="19" fill="url(#mask)" stroke="none"/>
<rect x="172.0" y="988" width="68.0" height="19" fill="#f3f7f4" stroke="none"/>
<rect x="242.0" y="988" width="68.0" height="19" fill="url(#mask)" stroke="none"/>
<rect x="312.0" y="988" width="68.0" height="19" fill="#82aeaa" stroke="none"/>
<text x="347.0" y="1002" fill="#192f38" text-anchor="middle" font-family="Arial, sans-serif" font-size="11" font-weight="400">6</text>
<rect x="382.0" y="988" width="68.0" height="19" fill="url(#mask)" stroke="none"/>
<rect x="452.0" y="988" width="68.0" height="19" fill="url(#mask)" stroke="none"/>
<text x="92" y="1024" fill="#52636a" text-anchor="end" font-family="Arial, sans-serif" font-size="11" font-weight="400">Sep 08</text>
<rect x="102.0" y="1009" width="68.0" height="19" fill="#f3f7f4" stroke="none"/>
<rect x="172.0" y="1009" width="68.0" height="19" fill="url(#mask)" stroke="none"/>
<rect x="242.0" y="1009" width="68.0" height="19" fill="url(#mask)" stroke="none"/>
<rect x="312.0" y="1009" width="68.0" height="19" fill="url(#mask)" stroke="none"/>
<rect x="382.0" y="1009" width="68.0" height="19" fill="#95bab6" stroke="none"/>
<text x="417.0" y="1023" fill="#192f38" text-anchor="middle" font-family="Arial, sans-serif" font-size="11" font-weight="400">5</text>
<rect x="452.0" y="1009" width="68.0" height="19" fill="#82aeaa" stroke="none"/>
<text x="487.0" y="1023" fill="#192f38" text-anchor="middle" font-family="Arial, sans-serif" font-size="11" font-weight="400">6</text>
<text x="92" y="1045" fill="#52636a" text-anchor="end" font-family="Arial, sans-serif" font-size="11" font-weight="400">Sep 09</text>
<rect x="102.0" y="1030" width="68.0" height="19" fill="#e1e3df" stroke="none"/>
<rect x="172.0" y="1030" width="68.0" height="19" fill="#e1e3df" stroke="none"/>
<rect x="242.0" y="1030" width="68.0" height="19" fill="#e1e3df" stroke="none"/>
<rect x="312.0" y="1030" width="68.0" height="19" fill="#e1e3df" stroke="none"/>
<rect x="382.0" y="1030" width="68.0" height="19" fill="#e1e3df" stroke="none"/>
<rect x="452.0" y="1030" width="68.0" height="19" fill="#e1e3df" stroke="none"/>
<text x="92" y="1066" fill="#52636a" text-anchor="end" font-family="Arial, sans-serif" font-size="11" font-weight="400">Sep 10</text>
<rect x="102.0" y="1051" width="68.0" height="19" fill="#e1e3df" stroke="none"/>
<rect x="172.0" y="1051" width="68.0" height="19" fill="#e1e3df" stroke="none"/>
<rect x="242.0" y="1051" width="68.0" height="19" fill="#e1e3df" stroke="none"/>
<rect x="312.0" y="1051" width="68.0" height="19" fill="#e1e3df" stroke="none"/>
<rect x="382.0" y="1051" width="68.0" height="19" fill="#e1e3df" stroke="none"/>
<rect x="452.0" y="1051" width="68.0" height="19" fill="#e1e3df" stroke="none"/>
<text x="92" y="1087" fill="#52636a" text-anchor="end" font-family="Arial, sans-serif" font-size="11" font-weight="400">Sep 11</text>
<rect x="102.0" y="1072" width="68.0" height="19" fill="#e1e3df" stroke="none"/>
<rect x="172.0" y="1072" width="68.0" height="19" fill="#e1e3df" stroke="none"/>
<rect x="242.0" y="1072" width="68.0" height="19" fill="url(#mask)" stroke="none"/>
<rect x="312.0" y="1072" width="68.0" height="19" fill="#82aeaa" stroke="none"/>
<text x="347.0" y="1086" fill="#192f38" text-anchor="middle" font-family="Arial, sans-serif" font-size="11" font-weight="400">6</text>
<rect x="382.0" y="1072" width="68.0" height="19" fill="#5d9691" stroke="none"/>
<text x="417.0" y="1086" fill="white" text-anchor="middle" font-family="Arial, sans-serif" font-size="11" font-weight="400">8</text>
<rect x="452.0" y="1072" width="68.0" height="19" fill="#95bab6" stroke="none"/>
<text x="487.0" y="1086" fill="#192f38" text-anchor="middle" font-family="Arial, sans-serif" font-size="11" font-weight="400">5</text>
<text x="92" y="1108" fill="#52636a" text-anchor="end" font-family="Arial, sans-serif" font-size="11" font-weight="400">Sep 12</text>
<rect x="102.0" y="1093" width="68.0" height="19" fill="url(#mask)" stroke="none"/>
<rect x="172.0" y="1093" width="68.0" height="19" fill="#f3f7f4" stroke="none"/>
<rect x="242.0" y="1093" width="68.0" height="19" fill="url(#mask)" stroke="none"/>
<rect x="312.0" y="1093" width="68.0" height="19" fill="#70a29d" stroke="none"/>
<text x="347.0" y="1107" fill="white" text-anchor="middle" font-family="Arial, sans-serif" font-size="11" font-weight="400">7</text>
<rect x="382.0" y="1093" width="68.0" height="19" fill="#387d78" stroke="none"/>
<text x="417.0" y="1107" fill="white" text-anchor="middle" font-family="Arial, sans-serif" font-size="11" font-weight="400">10</text>
<rect x="452.0" y="1093" width="68.0" height="19" fill="#70a29d" stroke="none"/>
<text x="487.0" y="1107" fill="white" text-anchor="middle" font-family="Arial, sans-serif" font-size="11" font-weight="400">7</text>
<text x="92" y="1129" fill="#52636a" text-anchor="end" font-family="Arial, sans-serif" font-size="11" font-weight="400">Sep 13</text>
<rect x="102.0" y="1114" width="68.0" height="19" fill="url(#mask)" stroke="none"/>
<rect x="172.0" y="1114" width="68.0" height="19" fill="url(#mask)" stroke="none"/>
<rect x="242.0" y="1114" width="68.0" height="19" fill="url(#mask)" stroke="none"/>
<rect x="312.0" y="1114" width="68.0" height="19" fill="url(#mask)" stroke="none"/>
<rect x="382.0" y="1114" width="68.0" height="19" fill="#5d9691" stroke="none"/>
<text x="417.0" y="1128" fill="white" text-anchor="middle" font-family="Arial, sans-serif" font-size="11" font-weight="400">8</text>
<rect x="452.0" y="1114" width="68.0" height="19" fill="url(#mask)" stroke="none"/>
<text x="92" y="1150" fill="#52636a" text-anchor="end" font-family="Arial, sans-serif" font-size="11" font-weight="400">Sep 14</text>
<rect x="102.0" y="1135" width="68.0" height="19" fill="url(#mask)" stroke="none"/>
<rect x="172.0" y="1135" width="68.0" height="19" fill="url(#mask)" stroke="none"/>
<rect x="242.0" y="1135" width="68.0" height="19" fill="url(#mask)" stroke="none"/>
<rect x="312.0" y="1135" width="68.0" height="19" fill="#95bab6" stroke="none"/>
<text x="347.0" y="1149" fill="#192f38" text-anchor="middle" font-family="Arial, sans-serif" font-size="11" font-weight="400">5</text>
<rect x="382.0" y="1135" width="68.0" height="19" fill="url(#mask)" stroke="none"/>
<rect x="452.0" y="1135" width="68.0" height="19" fill="#387d78" stroke="none"/>
<text x="487.0" y="1149" fill="white" text-anchor="middle" font-family="Arial, sans-serif" font-size="11" font-weight="400">10</text>
<text x="92" y="1171" fill="#52636a" text-anchor="end" font-family="Arial, sans-serif" font-size="11" font-weight="400">Sep 15</text>
<rect x="102.0" y="1156" width="68.0" height="19" fill="url(#mask)" stroke="none"/>
<rect x="172.0" y="1156" width="68.0" height="19" fill="#f3f7f4" stroke="none"/>
<rect x="242.0" y="1156" width="68.0" height="19" fill="url(#mask)" stroke="none"/>
<rect x="312.0" y="1156" width="68.0" height="19" fill="url(#mask)" stroke="none"/>
<rect x="382.0" y="1156" width="68.0" height="19" fill="#4a8a84" stroke="none"/>
<text x="417.0" y="1170" fill="white" text-anchor="middle" font-family="Arial, sans-serif" font-size="11" font-weight="400">9</text>
<rect x="452.0" y="1156" width="68.0" height="19" fill="#4a8a84" stroke="none"/>
<text x="487.0" y="1170" fill="white" text-anchor="middle" font-family="Arial, sans-serif" font-size="11" font-weight="400">9</text>
<circle cx="364.5" cy="746.5" r="4" fill="#fffefa" stroke="#a56728" stroke-width="2"/>
<path d="M521.7083333333334 868.5l4 4l-4 4l-4 -4Z" fill="#a56728"/>
<circle cx="312.0" cy="914.5" r="4" fill="#fffefa" stroke="#a56728" stroke-width="2"/>
<path d="M521.7083333333334 1015.5l4 4l-4 4l-4 -4Z" fill="#a56728"/>
<circle cx="294.5" cy="1082.5" r="4" fill="#fffefa" stroke="#a56728" stroke-width="2"/>
<path d="M521.7083333333334 1162.5l4 4l-4 4l-4 -4Z" fill="#a56728"/>
<text x="102" y="1202" fill="#52636a" text-anchor="start" font-family="Arial, sans-serif" font-size="12" font-weight="400">Hour of day · cell start</text>
<rect x="30" y="1243" width="17" height="17" fill="url(#mask)" stroke="none"/>
<text x="55" y="1256" fill="#52636a" text-anchor="start" font-family="Arial, sans-serif" font-size="12" font-weight="400">&lt;5 contributors: masked</text>
<rect x="295" y="1243" width="17" height="17" fill="#e1e3df" stroke="none"/>
<text x="320" y="1256" fill="#52636a" text-anchor="start" font-family="Arial, sans-serif" font-size="12" font-weight="400">No homework window</text>
<circle cx="38" cy="1283" r="4" fill="#fffefa" stroke="#a56728" stroke-width="2"/>
<text x="55" y="1287" fill="#52636a" text-anchor="start" font-family="Arial, sans-serif" font-size="12" font-weight="400">Opens</text>
<path d="M300 1279l4 4l-4 4l-4 -4Z" fill="#a56728"/>
<text x="320" y="1287" fill="#52636a" text-anchor="start" font-family="Arial, sans-serif" font-size="12" font-weight="400">Configured deadline</text>
<text x="30" y="1333" fill="#52636a" text-anchor="start" font-family="Arial, sans-serif" font-size="11" font-weight="400">Source: CS201 OJ · 20 Sep 2026 snapshot · own homework windows only</text>
</svg>
